<svg xmlns="http://www.w3.org/2000/svg" width="269" height="275" viewBox="0 0 269 275" version="1.1"><path d="M 207 85.189 C 207 103.170, 205.849 109.833, 201.295 118.199 C 197.675 124.850, 190.253 131.511, 182.223 135.315 L 175.500 138.500 134.500 139 C 94.186 139.492, 93.422 139.539, 88.864 141.807 C 81.373 145.533, 76.371 150.501, 72.792 157.768 L 69.500 164.452 69.203 200.809 C 68.957 230.919, 69.166 238.058, 70.416 242.360 C 73.473 252.875, 84.651 261.945, 100.761 266.981 C 114.002 271.120, 123.931 272.343, 139.336 271.736 C 167.960 270.607, 189.407 261.087, 196.642 246.300 C 199.279 240.909, 199.398 240.011, 199.448 225.085 L 199.500 209.500 167.250 209.236 L 135 208.972 135 205.544 L 135 202.115 186.750 201.807 L 238.500 201.500 244.208 198.697 C 250.975 195.374, 254.805 190.869, 259.499 180.708 C 270.333 157.259, 271.942 131.776, 264.404 103 C 261.156 90.600, 258.149 84.202, 252.885 78.491 C 245.423 70.396, 243.003 69.623, 223.750 69.182 L 207 68.798 207 85.189 M 167.001 227.123 C 157.947 230.733, 156.371 243.207, 164.353 248.074 C 169.416 251.161, 174.573 250.627, 178.600 246.600 C 180.470 244.730, 182.050 242.142, 182.111 240.850 C 182.466 233.307, 180.615 229.573, 175.454 227.416 C 171.555 225.787, 170.447 225.749, 167.001 227.123" stroke="none" fill="#fcdd53" fill-rule="evenodd"/><path d="M 112.500 0.689 C 94.315 3.049, 83.463 6.610, 77.384 12.214 C 70.473 18.584, 69.500 22.445, 69.500 43.500 L 69.500 61.500 101.750 61.764 L 134 62.028 134 65.514 L 134 69 86.750 69.012 C 35.577 69.025, 33.977 69.166, 24.062 74.563 C 9.251 82.624, 1.573 100.620, 0.308 130.236 C -0.476 148.591, 2.659 168.023, 8.442 180.655 C 11.316 186.933, 18.987 195.443, 24.143 198.073 C 29.309 200.709, 39.766 202.129, 51.506 201.789 L 61.500 201.500 62.007 181.500 C 62.498 162.094, 62.597 161.329, 65.328 155.752 C 69.467 147.302, 76.917 139.659, 84.803 135.774 L 91.450 132.500 132.475 131.997 L 173.500 131.495 179.747 128.612 C 190.598 123.605, 197.105 114.654, 199.062 102.042 C 200.516 92.666, 199.789 31.955, 198.161 26.930 C 196.526 21.879, 191.206 14.736, 185.970 10.561 C 176.436 2.957, 161.145 -0.043, 133 0.168 C 123.375 0.240, 114.150 0.475, 112.500 0.689 M 93.270 21.483 C 89.691 23.038, 86.010 28.257, 86.004 31.782 C 85.987 41.806, 97.477 47.677, 104.894 41.436 C 111.822 35.606, 110.434 24.751, 102.328 21.364 C 98.326 19.692, 97.360 19.704, 93.270 21.483" stroke="none" fill="#3d7aab" fill-rule="evenodd"/></svg>
